<svg xmlns="http://www.w3.org/2000/svg" viewBox="0 0 600 30.06"><defs><style>.cls-1,.cls-2,.cls-3{fill:#fff;}.cls-2{font-size:25.17px;}.cls-2,.cls-3{font-family:Quicksand-Regular, Quicksand;}.cls-3{font-size:23.82px;}.cls-4{fill:#f8f8f6;}</style></defs><title>apple-bar</title><g id="Layer_2" data-name="Layer 2"><g id="Home_all" data-name="Home all"><g id="Phone_data" data-name="Phone data"><path class="cls-1" d="M15.41,15.22a7.71,7.71,0,1,1-7.7-7.7A7.71,7.71,0,0,1,15.41,15.22Z"/><path class="cls-1" d="M32.64,15.22a7.71,7.71,0,1,1-7.71-7.7A7.71,7.71,0,0,1,32.64,15.22Z"/><path class="cls-1" d="M49.87,15.22a7.71,7.71,0,1,1-7.71-7.7A7.71,7.71,0,0,1,49.87,15.22Z"/><path class="cls-1" d="M67.09,15.22a7.71,7.71,0,1,1-7.71-7.7A7.71,7.71,0,0,1,67.09,15.22Z"/><path class="cls-1" d="M84.32,15.22a7.71,7.71,0,1,1-7.71-7.7A7.71,7.71,0,0,1,84.32,15.22Z"/><path class="cls-1" d="M112.19,16.67a3.51,3.51,0,1,1-3.51,3.5A3.5,3.5,0,0,1,112.19,16.67Z"/><path class="cls-1" d="M120.55,11.74a.75.75,0,0,0-.16-.15l-.15-.15-.09-.08a11.43,11.43,0,0,0-15.79.38l-.5.5-.71.7a2.22,2.22,0,0,0,0,3.11,2.18,2.18,0,0,0,3.1,0l1.21-1.21a7.07,7.07,0,0,1,10,0l.88.85A2.19,2.19,0,0,0,122,14.14a2.15,2.15,0,0,0-.64-1.53Z"/><path class="cls-1" d="M126.52,7.4l-.72-.72h0l-.58-.58a1.92,1.92,0,0,0-.32-.26,19.07,19.07,0,0,0-25.76.59L99,6.51,97.7,7.83a2,2,0,0,0,2.83,2.83l1.32-1.31,0,0a15,15,0,0,1,20.77-.11l1,1a2,2,0,0,0,2.83-2.84Z"/><text class="cls-2" transform="translate(272.78 21.4)">12:40AM</text><text class="cls-3" transform="translate(483.53 25.18)">100%</text><path class="cls-4" d="M559,28.13a2.07,2.07,0,0,1-2.16-2l0-15.55a2.11,2.11,0,0,1,2.15-2L595,8.55a2.13,2.13,0,0,1,2.18,2v3.22l2.79,0,0,9.17h-2.8v3.18a2.07,2.07,0,0,1-2.16,2ZM595.69,10,558.28,10l0,16.72,37.41-.06Zm-36,1.61L587,11.52l0,13.61-27.22,0Z"/></g></g></g></svg>