<svg xmlns="http://www.w3.org/2000/svg" viewBox="0 0 79.99 80"><defs><style>.cls-1{fill:#f7931a;}.cls-2{fill:#fff;}</style></defs><title>btc-logo</title><g id="Layer_2" data-name="Layer 2"><g id="Home_all" data-name="Home all"><g id="logo"><path class="cls-1" d="M78.79,49.68A40,40,0,1,1,49.67,1.2,40,40,0,0,1,78.79,49.68Z"/><path class="cls-2" d="M57.63,34.3c.8-5.32-3.26-8.18-8.8-10.09L50.63,17l-4.39-1.09-1.75,7c-1.15-.29-2.34-.56-3.51-.83L42.74,15l-4.39-1.09-1.8,7.21-2.8-.66v0L27.7,19l-1.16,4.69s3.25.75,3.18.79A2.35,2.35,0,0,1,31.77,27L29.72,35.2a4,4,0,0,1,.46.15l-.47-.12L26.84,46.74a1.59,1.59,0,0,1-2,1c.05.06-3.19-.8-3.19-.8l-2.18,5,5.72,1.42,3.12.81-1.81,7.29,4.38,1.1,1.8-7.22c1.2.33,2.36.63,3.5.91l-1.8,7.18,4.39,1.09,1.82-7.27c7.48,1.41,13.11.84,15.48-5.93C58,45.94,56,42.8,52,40.75c2.86-.67,5-2.55,5.6-6.45Zm-10,14.06c-1.35,5.45-10.53,2.51-13.51,1.77l2.41-9.66c3,.74,12.52,2.21,11.1,7.89ZM49,34.22c-1.24,5-8.88,2.44-11.35,1.82l2.18-8.76C42.27,27.9,50.25,29.05,49,34.22Z"/></g></g></g></svg>