<svg xmlns="http://www.w3.org/2000/svg" viewBox="0 0 60 60"><defs><style>.cls-1{fill:#9ba8b8;}</style></defs><title>calendar</title><g id="Layer_2" data-name="Layer 2"><g id="Home_all" data-name="Home all"><g id="Calendar"><path class="cls-1" d="M9.23,11.54V2.31a2.31,2.31,0,0,1,4.62,0v9.23a2.31,2.31,0,0,1-4.62,0Zm39.23,2.31a2.31,2.31,0,0,0,2.31-2.31V2.31a2.31,2.31,0,0,0-4.62,0v9.23A2.32,2.32,0,0,0,48.46,13.85ZM4.62,54.92V23.08H55.38v9.23H60v-18a5,5,0,0,0-5-5.08H53.08v2.31a4.62,4.62,0,0,1-9.23,0V9.23H16.15v2.31a4.62,4.62,0,0,1-9.23,0V9.23H5a5,5,0,0,0-5,5.08V54.92A5,5,0,0,0,5,60H32.31V55.38H5A.43.43,0,0,1,4.62,54.92ZM55,55.38H27.69V60H55a5,5,0,0,0,5-5.08V14.31a5,5,0,0,0-5-5.08H53.08v2.31a4.62,4.62,0,0,1-9.23,0V9.23H16.15v2.31a4.62,4.62,0,0,1-9.23,0V9.23H5a5,5,0,0,0-5,5.08v18H4.62V23.08H55.38V54.92A.43.43,0,0,1,55,55.38ZM20.77,27.69H11.54v9.23h9.23ZM11.54,50.77h9.23V41.54H11.54ZM25.38,36.92h9.24V27.69H25.38Zm0,13.85h9.24V41.54H25.38ZM48.46,36.92V27.69H39.23v9.23ZM39.23,50.77h9.23V41.54H39.23Z"/></g></g></g></svg>