<svg xmlns="http://www.w3.org/2000/svg" xmlns:xlink="http://www.w3.org/1999/xlink" viewBox="0 0 60 60"><defs><style>.cls-1{fill:url(#linear-gradient);}.cls-2{fill:url(#linear-gradient-2);}.cls-3{fill:url(#linear-gradient-3);}.cls-4{fill:url(#linear-gradient-4);}.cls-5{fill:url(#linear-gradient-5);}.cls-6{fill:url(#linear-gradient-6);}.cls-7{fill:url(#linear-gradient-7);}.cls-8{fill:url(#linear-gradient-8);}.cls-9{fill:url(#linear-gradient-9);}.cls-10{fill:url(#linear-gradient-10);}.cls-11{fill:url(#linear-gradient-11);}.cls-12{fill:url(#linear-gradient-12);}.cls-13{fill:url(#linear-gradient-13);}.cls-14{fill:url(#linear-gradient-14);}.cls-15{fill:url(#linear-gradient-15);}.cls-16{fill:url(#linear-gradient-16);}.cls-17{fill:url(#linear-gradient-17);}.cls-18{fill:url(#linear-gradient-18);}.cls-19{fill:url(#linear-gradient-19);}.cls-20{fill:url(#linear-gradient-20);}.cls-21{fill:url(#linear-gradient-21);}.cls-22{fill:url(#linear-gradient-22);}.cls-23{fill:url(#linear-gradient-23);}.cls-24{fill:url(#linear-gradient-24);}.cls-25{fill:url(#linear-gradient-25);}.cls-26{fill:url(#linear-gradient-26);}.cls-27{fill:url(#linear-gradient-27);}.cls-28{fill:url(#linear-gradient-28);}.cls-29{fill:url(#linear-gradient-29);}.cls-30{fill:url(#linear-gradient-30);}.cls-31{fill:url(#linear-gradient-31);}.cls-32{fill:url(#linear-gradient-32);}.cls-33{fill:url(#linear-gradient-33);}.cls-34{fill:url(#linear-gradient-34);}.cls-35{fill:url(#linear-gradient-35);}.cls-36{fill:url(#linear-gradient-36);}.cls-37{fill:url(#linear-gradient-37);}.cls-38{fill:url(#linear-gradient-38);}.cls-39{fill:url(#linear-gradient-39);}.cls-40{fill:url(#linear-gradient-40);}</style><linearGradient id="linear-gradient" x1="39.23" y1="46.15" x2="48.46" y2="46.15" gradientUnits="userSpaceOnUse"><stop offset="0" stop-color="#243b55"/><stop offset="1" stop-color="#141e30"/></linearGradient><linearGradient id="linear-gradient-2" x1="14" y1="76" x2="76" y2="14" xlink:href="#linear-gradient"/><linearGradient id="linear-gradient-3" x1="25.38" y1="46.15" x2="34.62" y2="46.15" xlink:href="#linear-gradient"/><linearGradient id="linear-gradient-4" x1="7.07" y1="69.08" x2="69.08" y2="7.08" xlink:href="#linear-gradient"/><linearGradient id="linear-gradient-5" x1="25.38" y1="32.31" x2="34.62" y2="32.31" xlink:href="#linear-gradient"/><linearGradient id="linear-gradient-6" x1="0.15" y1="62.16" x2="62.15" y2="0.15" xlink:href="#linear-gradient"/><linearGradient id="linear-gradient-7" x1="55" y1="11.77" x2="60" y2="11.77" xlink:href="#linear-gradient"/><linearGradient id="linear-gradient-8" x1="3.63" y1="65.64" x2="65.63" y2="3.63" xlink:href="#linear-gradient"/><linearGradient id="linear-gradient-9" x1="52.29" y1="13.29" x2="52.98" y2="13.29" xlink:href="#linear-gradient"/><linearGradient id="linear-gradient-10" x1="1.96" y1="63.97" x2="63.96" y2="1.96" xlink:href="#linear-gradient"/><linearGradient id="linear-gradient-11" x1="7.02" y1="13.29" x2="7.71" y2="13.29" xlink:href="#linear-gradient"/><linearGradient id="linear-gradient-12" x1="-20.68" y1="41.33" x2="41.33" y2="-20.67" xlink:href="#linear-gradient"/><linearGradient id="linear-gradient-13" x1="11.54" y1="32.31" x2="20.77" y2="32.31" xlink:href="#linear-gradient"/><linearGradient id="linear-gradient-14" x1="-6.77" y1="55.23" x2="55.23" y2="-6.77" xlink:href="#linear-gradient"/><linearGradient id="linear-gradient-15" x1="48.46" y1="15.48" x2="51.72" y2="15.48" xlink:href="#linear-gradient"/><linearGradient id="linear-gradient-16" x1="1.78" y1="63.79" x2="63.78" y2="1.78" xlink:href="#linear-gradient"/><linearGradient id="linear-gradient-17" x1="11.54" y1="46.15" x2="20.77" y2="46.15" xlink:href="#linear-gradient"/><linearGradient id="linear-gradient-18" x1="0.15" y1="62.16" x2="62.15" y2="0.15" xlink:href="#linear-gradient"/><linearGradient id="linear-gradient-19" x1="39.23" y1="32.31" x2="48.46" y2="32.31" xlink:href="#linear-gradient"/><linearGradient id="linear-gradient-20" x1="7.07" y1="69.08" x2="69.08" y2="7.08" xlink:href="#linear-gradient"/><linearGradient id="linear-gradient-21" x1="32.31" y1="46.15" x2="60" y2="46.15" xlink:href="#linear-gradient"/><linearGradient id="linear-gradient-22" x1="20.18" y1="82.19" x2="82.18" y2="20.18" xlink:href="#linear-gradient"/><linearGradient id="linear-gradient-23" x1="0" y1="46.15" x2="27.69" y2="46.15" xlink:href="#linear-gradient"/><linearGradient id="linear-gradient-24" x1="-1" y1="61" x2="61" y2="-1" xlink:href="#linear-gradient"/><linearGradient id="linear-gradient-25" x1="27.69" y1="57.69" x2="32.31" y2="57.69" xlink:href="#linear-gradient"/><linearGradient id="linear-gradient-26" x1="12.84" y1="74.85" x2="74.85" y2="12.85" xlink:href="#linear-gradient"/><linearGradient id="linear-gradient-27" x1="43.85" y1="12.69" x2="48.46" y2="12.69" xlink:href="#linear-gradient"/><linearGradient id="linear-gradient-28" x1="-1.58" y1="60.43" x2="60.42" y2="-1.58" xlink:href="#linear-gradient"/><linearGradient id="linear-gradient-29" x1="46.15" y1="6.92" x2="50.77" y2="6.92" xlink:href="#linear-gradient"/><linearGradient id="linear-gradient-30" x1="-3.31" y1="58.7" x2="58.69" y2="-3.31" xlink:href="#linear-gradient"/><linearGradient id="linear-gradient-31" x1="9.23" y1="6.92" x2="13.85" y2="6.92" xlink:href="#linear-gradient"/><linearGradient id="linear-gradient-32" x1="-21.77" y1="40.23" x2="40.23" y2="-21.77" xlink:href="#linear-gradient"/><linearGradient id="linear-gradient-33" x1="8.28" y1="15.48" x2="11.54" y2="15.48" xlink:href="#linear-gradient"/><linearGradient id="linear-gradient-34" x1="-18.31" y1="43.7" x2="43.69" y2="-18.31" xlink:href="#linear-gradient"/><linearGradient id="linear-gradient-35" x1="0" y1="20.77" x2="60" y2="20.77" xlink:href="#linear-gradient"/><linearGradient id="linear-gradient-36" x1="-4.88" y1="57.13" x2="57.12" y2="-4.88" xlink:href="#linear-gradient"/><linearGradient id="linear-gradient-37" x1="11.54" y1="12.69" x2="16.15" y2="12.69" xlink:href="#linear-gradient"/><linearGradient id="linear-gradient-38" x1="-17.26" y1="44.75" x2="44.75" y2="-17.25" xlink:href="#linear-gradient"/><linearGradient id="linear-gradient-39" x1="0" y1="11.77" x2="5" y2="11.77" xlink:href="#linear-gradient"/><linearGradient id="linear-gradient-40" x1="-24.38" y1="37.63" x2="37.62" y2="-24.38" xlink:href="#linear-gradient"/></defs><title>full-calendar</title><g id="Layer_2" data-name="Layer 2"><g id="Calendar"><rect class="cls-1" x="39.23" y="41.54" width="9.23" height="9.23"/><rect class="cls-2" x="39.23" y="41.54" width="9.23" height="9.23"/><rect class="cls-3" x="25.38" y="41.54" width="9.23" height="9.23"/><rect class="cls-4" x="25.38" y="41.54" width="9.23" height="9.23"/><rect class="cls-5" x="25.38" y="27.69" width="9.23" height="9.23"/><rect class="cls-6" x="25.38" y="27.69" width="9.23" height="9.23"/><path class="cls-7" d="M60,14.31a5,5,0,0,0-5-5.08h0A5,5,0,0,1,60,14.31Z"/><path class="cls-8" d="M60,14.31a5,5,0,0,0-5-5.08h0A5,5,0,0,1,60,14.31Z"/><path class="cls-9" d="M52.29,14.12A4.63,4.63,0,0,0,53,12.47,4.63,4.63,0,0,1,52.29,14.12Z"/><path class="cls-10" d="M52.29,14.12A4.63,4.63,0,0,0,53,12.47,4.63,4.63,0,0,1,52.29,14.12Z"/><path class="cls-11" d="M7,12.47a4.63,4.63,0,0,0,.69,1.65A4.63,4.63,0,0,1,7,12.47Z"/><path class="cls-12" d="M7,12.47a4.63,4.63,0,0,0,.69,1.65A4.63,4.63,0,0,1,7,12.47Z"/><rect class="cls-13" x="11.54" y="27.69" width="9.23" height="9.23"/><rect class="cls-14" x="11.54" y="27.69" width="9.23" height="9.23"/><path class="cls-15" d="M51.72,14.8a4.57,4.57,0,0,1-3.26,1.35h0A4.57,4.57,0,0,0,51.72,14.8Z"/><path class="cls-16" d="M51.72,14.8a4.57,4.57,0,0,1-3.26,1.35h0A4.57,4.57,0,0,0,51.72,14.8Z"/><rect class="cls-17" x="11.54" y="41.54" width="9.23" height="9.23"/><rect class="cls-18" x="11.54" y="41.54" width="9.23" height="9.23"/><rect class="cls-19" x="39.23" y="27.69" width="9.23" height="9.23"/><rect class="cls-20" x="39.23" y="27.69" width="9.23" height="9.23"/><path class="cls-21" d="M60,54.92V32.31H55.38V54.92a.43.43,0,0,1-.38.46H32.31V60H55A5,5,0,0,0,60,54.92Z"/><path class="cls-22" d="M60,54.92V32.31H55.38V54.92a.43.43,0,0,1-.38.46H32.31V60H55A5,5,0,0,0,60,54.92Z"/><path class="cls-23" d="M5,55.38a.43.43,0,0,1-.38-.46V32.31H0V54.92A5,5,0,0,0,5,60H27.69V55.38Z"/><path class="cls-24" d="M5,55.38a.43.43,0,0,1-.38-.46V32.31H0V54.92A5,5,0,0,0,5,60H27.69V55.38Z"/><rect class="cls-25" x="27.69" y="55.38" width="4.62" height="4.62"/><rect class="cls-26" x="27.69" y="55.38" width="4.62" height="4.62"/><path class="cls-27" d="M48.46,16.15h0a4.62,4.62,0,0,1-4.61-4.61V9.23h0v2.31A4.61,4.61,0,0,0,48.46,16.15Z"/><path class="cls-28" d="M48.46,16.15h0a4.62,4.62,0,0,1-4.61-4.61V9.23h0v2.31A4.61,4.61,0,0,0,48.46,16.15Z"/><path class="cls-29" d="M48.46,0a2.31,2.31,0,0,0-2.31,2.31v9.23a2.31,2.31,0,0,0,4.62,0V2.31A2.3,2.3,0,0,0,48.46,0Z"/><path class="cls-30" d="M48.46,0a2.31,2.31,0,0,0-2.31,2.31v9.23a2.31,2.31,0,0,0,4.62,0V2.31A2.3,2.3,0,0,0,48.46,0Z"/><path class="cls-31" d="M11.54,0A2.3,2.3,0,0,0,9.23,2.31v9.23a2.31,2.31,0,0,0,4.62,0V2.31A2.31,2.31,0,0,0,11.54,0Z"/><path class="cls-32" d="M11.54,0A2.3,2.3,0,0,0,9.23,2.31v9.23a2.31,2.31,0,0,0,4.62,0V2.31A2.31,2.31,0,0,0,11.54,0Z"/><path class="cls-33" d="M11.54,16.15A4.57,4.57,0,0,1,8.28,14.8a4.57,4.57,0,0,0,3.26,1.35Z"/><path class="cls-34" d="M11.54,16.15A4.57,4.57,0,0,1,8.28,14.8a4.57,4.57,0,0,0,3.26,1.35Z"/><path class="cls-35" d="M4.62,23.08H55.38v9.23H60v-18a5,5,0,0,0-5-5.08H53.08v2.31a4.73,4.73,0,0,1-.1.93,4.63,4.63,0,0,1-.69,1.65,5.27,5.27,0,0,1-.57.68,4.57,4.57,0,0,1-3.26,1.35h0a4.61,4.61,0,0,1-4.61-4.61V9.23H16.15v2.31a4.62,4.62,0,0,1-4.61,4.61h0A4.57,4.57,0,0,1,8.28,14.8a5.27,5.27,0,0,1-.57-.68A4.63,4.63,0,0,1,7,12.47a4.73,4.73,0,0,1-.1-.93V9.23H5a5,5,0,0,0-5,5.08v18H4.62Z"/><path class="cls-36" d="M4.62,23.08H55.38v9.23H60v-18a5,5,0,0,0-5-5.08H53.08v2.31a4.73,4.73,0,0,1-.1.93,4.63,4.63,0,0,1-.69,1.65,5.27,5.27,0,0,1-.57.68,4.57,4.57,0,0,1-3.26,1.35h0a4.61,4.61,0,0,1-4.61-4.61V9.23H16.15v2.31a4.62,4.62,0,0,1-4.61,4.61h0A4.57,4.57,0,0,1,8.28,14.8a5.27,5.27,0,0,1-.57-.68A4.63,4.63,0,0,1,7,12.47a4.73,4.73,0,0,1-.1-.93V9.23H5a5,5,0,0,0-5,5.08v18H4.62Z"/><path class="cls-37" d="M16.15,11.54V9.23h0v2.31a4.62,4.62,0,0,1-4.61,4.61h0A4.62,4.62,0,0,0,16.15,11.54Z"/><path class="cls-38" d="M16.15,11.54V9.23h0v2.31a4.62,4.62,0,0,1-4.61,4.61h0A4.62,4.62,0,0,0,16.15,11.54Z"/><path class="cls-39" d="M5,9.23H5a5,5,0,0,0-5,5.08A5,5,0,0,1,5,9.23Z"/><path class="cls-40" d="M5,9.23H5a5,5,0,0,0-5,5.08A5,5,0,0,1,5,9.23Z"/></g></g></svg>