<svg xmlns="http://www.w3.org/2000/svg" xmlns:xlink="http://www.w3.org/1999/xlink" viewBox="0 0 63.82 60"><defs><style>.cls-1{fill:url(#linear-gradient);}.cls-2{fill:url(#linear-gradient-2);}</style><linearGradient id="linear-gradient" x1="7.48" y1="69.57" x2="71.98" y2="5.07" gradientUnits="userSpaceOnUse"><stop offset="0" stop-color="#243b55"/><stop offset="1" stop-color="#141e30"/></linearGradient><linearGradient id="linear-gradient-2" x1="0.94" y1="63.03" x2="65.44" y2="-1.47" xlink:href="#linear-gradient"/></defs><title>full-home</title><g id="Layer_2" data-name="Layer 2"><g id="Home_all" data-name="Home all"><path class="cls-1" d="M55.07,58.22v-27a1.81,1.81,0,1,0-3.61,0V56.38h-13V46.12a1.82,1.82,0,0,0-1.78-1.81H27.21a1.86,1.86,0,0,0-1.87,1.81V56.38h-13V32.08a1.81,1.81,0,0,0-3.61,0V58.22A1.79,1.79,0,0,0,10.49,60H27.21A1.79,1.79,0,0,0,29,58.22V48H34.8V58.22A1.81,1.81,0,0,0,36.64,60H53.3A1.79,1.79,0,0,0,55.07,58.22Z"/><path class="cls-2" d="M48.78,16.26V6.32a1.83,1.83,0,0,0-1.87-1.83,1.79,1.79,0,0,0-1.77,1.83v6.29l-12-12A1.74,1.74,0,0,0,31.93,0a1.85,1.85,0,0,0-1.31.57L.56,30.64a1.71,1.71,0,0,0,0,2.53,1.71,1.71,0,0,0,2.54,0L31.93,4.42l28.76,29a1.76,1.76,0,0,0,1.3.47,2,2,0,0,0,1.31-.47,1.91,1.91,0,0,0,0-2.62Z"/></g></g></svg>