<svg xmlns="http://www.w3.org/2000/svg" xmlns:xlink="http://www.w3.org/1999/xlink" viewBox="0 0 60 60"><defs><style>.cls-1{fill:#9ba8b8;}.cls-2{fill:url(#linear-gradient);}.cls-3{fill:url(#linear-gradient-2);}</style><linearGradient id="linear-gradient" y1="30" x2="60" y2="30" gradientUnits="userSpaceOnUse"><stop offset="0" stop-color="#243b55"/><stop offset="1" stop-color="#141e30"/></linearGradient><linearGradient id="linear-gradient-2" y1="29.99" x2="60" y2="29.99" xlink:href="#linear-gradient"/></defs><title>full-gear</title><g id="Layer_2" data-name="Layer 2"><g id="Layer_9" data-name="Layer 9"><polygon class="cls-1" points="0 27.49 0 32.76 0 32.77 0 27.48 0 27.49"/><polygon class="cls-1" points="27.35 60 32.64 60 32.65 60 27.34 60 27.35 60"/><path class="cls-1" d="M36.3,56.9,37,52.69A24,24,0,0,0,41.1,51l3.47,2.48a3.71,3.71,0,0,0,4.78-.4l3.73-3.73a3.71,3.71,0,0,0,.4-4.78L51,41.09A23.36,23.36,0,0,0,52.69,37l4.21-.7A3.7,3.7,0,0,0,60,32.64V27.36a3.66,3.66,0,0,0-3.07-3.66L52.72,23A24.44,24.44,0,0,0,51,18.9l2.48-3.47a3.71,3.71,0,0,0-.4-4.78L49.37,6.92a3.68,3.68,0,0,0-2.62-1.09,3.62,3.62,0,0,0-2.14.69L41.12,9a23.24,23.24,0,0,0-4.23-1.74l-.7-4.16A3.71,3.71,0,0,0,32.53,0H27.25a3.7,3.7,0,0,0-3.66,3.1l-.73,4.26a23.38,23.38,0,0,0-4.07,1.71L15.34,6.59a3.69,3.69,0,0,0-4.77.4L6.82,10.73a3.69,3.69,0,0,0-.4,4.77L8.92,19a22.42,22.42,0,0,0-1.66,4.1l-4.16.7A3.69,3.69,0,0,0,0,27.48v5.29a3.69,3.69,0,0,0,3.1,3.65l4.26.73a23.38,23.38,0,0,0,1.71,4.07L6.61,44.66A3.68,3.68,0,0,0,7,49.43l3.73,3.74a3.68,3.68,0,0,0,2.62,1.09,3.62,3.62,0,0,0,2.14-.69L19,51.06a22.44,22.44,0,0,0,4,1.63l.7,4.21A3.71,3.71,0,0,0,27.34,60h5.31A3.71,3.71,0,0,0,36.3,56.9Zm-2.45-5.8L33,56.37a.31.31,0,0,1-.32.27H27.36a.31.31,0,0,1-.32-.27l-.88-5.27a1.67,1.67,0,0,0-1.24-1.35,21.09,21.09,0,0,1-5.14-2.11,1.74,1.74,0,0,0-.85-.22,1.68,1.68,0,0,0-1,.31l-4.39,3.12a.33.33,0,0,1-.19.06.3.3,0,0,1-.23-.1L9.4,47.08a.35.35,0,0,1,0-.43l3.09-4.32a1.74,1.74,0,0,0,.07-1.86,19.49,19.49,0,0,1-2.2-5.24A1.73,1.73,0,0,0,9,34l-5.3-.9a.33.33,0,0,1-.28-.33V27.49a.33.33,0,0,1,.28-.33l5.23-.88A1.68,1.68,0,0,0,10.25,25a20.09,20.09,0,0,1,2.15-5.26,1.69,1.69,0,0,0-.09-1.83L9.19,13.55a.35.35,0,0,1,0-.43L13,9.39a.32.32,0,0,1,.24-.1.31.31,0,0,1,.19.06l4.32,3.08a1.72,1.72,0,0,0,1.86.08A19.78,19.78,0,0,1,24.8,10.3,1.73,1.73,0,0,0,26.05,9l.9-5.3a.32.32,0,0,1,.32-.28h5.28a.33.33,0,0,1,.33.28l.87,5.22A1.71,1.71,0,0,0,35,10.24a20.48,20.48,0,0,1,5.37,2.21,1.72,1.72,0,0,0,1.85-.08l4.32-3.11a.35.35,0,0,1,.19-.06.33.33,0,0,1,.24.1L50.71,13a.32.32,0,0,1,0,.42l-3.1,4.35a1.7,1.7,0,0,0-.07,1.84,20.25,20.25,0,0,1,2.18,5.25,1.66,1.66,0,0,0,1.35,1.25l5.27.89a.31.31,0,0,1,.27.32v5.28h0a.31.31,0,0,1-.27.32l-5.27.88a1.67,1.67,0,0,0-1.35,1.24,20.45,20.45,0,0,1-2.18,5.25,1.7,1.7,0,0,0,.07,1.85l3.1,4.36a.33.33,0,0,1,0,.42L47,50.7a.32.32,0,0,1-.42,0l-4.35-3.1a1.68,1.68,0,0,0-1.84-.07,20.52,20.52,0,0,1-5.26,2.18A1.66,1.66,0,0,0,33.85,51.1Z"/><path class="cls-2" d="M36.3,56.9,37,52.69A24,24,0,0,0,41.1,51l3.47,2.48a3.71,3.71,0,0,0,4.78-.4l3.73-3.73a3.71,3.71,0,0,0,.4-4.78L51,41.09A23.36,23.36,0,0,0,52.69,37l4.21-.7A3.7,3.7,0,0,0,60,32.64V27.36a3.66,3.66,0,0,0-3.07-3.66L52.72,23A24.44,24.44,0,0,0,51,18.9l2.48-3.47a3.71,3.71,0,0,0-.4-4.78L49.37,6.92a3.68,3.68,0,0,0-2.62-1.09,3.62,3.62,0,0,0-2.14.69L41.12,9a23.24,23.24,0,0,0-4.23-1.74l-.7-4.16A3.71,3.71,0,0,0,32.53,0H27.25a3.7,3.7,0,0,0-3.66,3.1l-.73,4.26a23.38,23.38,0,0,0-4.07,1.71L15.34,6.59a3.69,3.69,0,0,0-4.77.4L6.82,10.73a3.69,3.69,0,0,0-.4,4.77L8.92,19a22.42,22.42,0,0,0-1.66,4.1l-4.16.7A3.69,3.69,0,0,0,0,27.48v5.29a3.69,3.69,0,0,0,3.1,3.65l4.26.73a23.38,23.38,0,0,0,1.71,4.07L6.61,44.66A3.68,3.68,0,0,0,7,49.43l3.73,3.74a3.68,3.68,0,0,0,2.62,1.09,3.62,3.62,0,0,0,2.14-.69L19,51.06a22.44,22.44,0,0,0,4,1.63l.7,4.21A3.71,3.71,0,0,0,27.34,60h5.31A3.71,3.71,0,0,0,36.3,56.9Zm-2.45-5.8L33,56.37a.31.31,0,0,1-.32.27H27.36a.31.31,0,0,1-.32-.27l-.88-5.27a1.67,1.67,0,0,0-1.24-1.35,21.09,21.09,0,0,1-5.14-2.11,1.74,1.74,0,0,0-.85-.22,1.68,1.68,0,0,0-1,.31l-4.39,3.12a.33.33,0,0,1-.19.06.3.3,0,0,1-.23-.1L9.4,47.08a.35.35,0,0,1,0-.43l3.09-4.32a1.74,1.74,0,0,0,.07-1.86,19.49,19.49,0,0,1-2.2-5.24A1.73,1.73,0,0,0,9,34l-5.3-.9a.33.33,0,0,1-.28-.33V27.49a.33.33,0,0,1,.28-.33l5.23-.88A1.68,1.68,0,0,0,10.25,25a20.09,20.09,0,0,1,2.15-5.26,1.69,1.69,0,0,0-.09-1.83L9.19,13.55a.35.35,0,0,1,0-.43L13,9.39a.32.32,0,0,1,.24-.1.31.31,0,0,1,.19.06l4.32,3.08a1.72,1.72,0,0,0,1.86.08A19.78,19.78,0,0,1,24.8,10.3,1.73,1.73,0,0,0,26.05,9l.9-5.3a.32.32,0,0,1,.32-.28h5.28a.33.33,0,0,1,.33.28l.87,5.22A1.71,1.71,0,0,0,35,10.24a20.48,20.48,0,0,1,5.37,2.21,1.72,1.72,0,0,0,1.85-.08l4.32-3.11a.35.35,0,0,1,.19-.06.33.33,0,0,1,.24.1L50.71,13a.32.32,0,0,1,0,.42l-3.1,4.35a1.7,1.7,0,0,0-.07,1.84,20.25,20.25,0,0,1,2.18,5.25,1.66,1.66,0,0,0,1.35,1.25l5.27.89a.31.31,0,0,1,.27.32v5.28h0a.31.31,0,0,1-.27.32l-5.27.88a1.67,1.67,0,0,0-1.35,1.24,20.45,20.45,0,0,1-2.18,5.25,1.7,1.7,0,0,0,.07,1.85l3.1,4.36a.33.33,0,0,1,0,.42L47,50.7a.32.32,0,0,1-.42,0l-4.35-3.1a1.68,1.68,0,0,0-1.84-.07,20.52,20.52,0,0,1-5.26,2.18A1.66,1.66,0,0,0,33.85,51.1Z"/><path class="cls-1" d="M43,30A12.95,12.95,0,1,0,30,42.94,12.95,12.95,0,0,0,43,30ZM30,39.56A9.57,9.57,0,1,1,39.57,30,9.58,9.58,0,0,1,30,39.56Z"/><path class="cls-3" d="M43,30A12.95,12.95,0,1,0,30,42.94,12.95,12.95,0,0,0,43,30ZM30,39.56A9.57,9.57,0,1,1,39.57,30,9.58,9.58,0,0,1,30,39.56Z"/></g></g></svg>