<svg xmlns="http://www.w3.org/2000/svg" viewBox="0 0 41.74 40"><defs><style>.cls-1{fill:#f9c13c;}</style></defs><title>full-star</title><g id="Layer_2" data-name="Layer 2"><g id="Home_all" data-name="Home all"><path class="cls-1" d="M40.8,18.24a3.12,3.12,0,0,0-1.73-5.31l-10.32-1.5a.6.6,0,0,1-.47-.34L23.66,1.73a3.11,3.11,0,0,0-5.58,0l-4.62,9.36a.6.6,0,0,1-.47.34L2.67,12.93A3.11,3.11,0,0,0,.94,18.24l7.47,7.28a.61.61,0,0,1,.18.55L6.83,36.36a3.11,3.11,0,0,0,4.51,3.28l9.24-4.86a.66.66,0,0,1,.58,0l9.23,4.86a3.15,3.15,0,0,0,1.46.36,3.05,3.05,0,0,0,1.82-.6,3.09,3.09,0,0,0,1.24-3L33.15,26.07a.61.61,0,0,1,.18-.55Z"/></g></g></svg>