<svg xmlns="http://www.w3.org/2000/svg" xmlns:xlink="http://www.w3.org/1999/xlink" viewBox="0 0 74 80"><defs><style>.cls-1{fill:url(#linear-gradient);}</style><linearGradient id="linear-gradient" x1="-12.4" y1="-631.51" x2="46.8" y2="-631.51" gradientTransform="matrix(1.25, 0, 0, -1.25, 15.5, -749.38)" gradientUnits="userSpaceOnUse"><stop offset="0" stop-color="#11aae2"/><stop offset="0.59" stop-color="#0880b7"/><stop offset="1" stop-color="#016197"/></linearGradient></defs><title>ripple-logo</title><g id="Layer_2" data-name="Layer 2"><g id="Home_all" data-name="Home all"><path id="log" class="cls-1" d="M48.92,2.15A16.9,16.9,0,0,0,40.55,16.7a19,19,0,0,0,2.79,9c1.24,2.48,1.85,6.81-2.48,9a6.63,6.63,0,0,1-9-2.48,27.83,27.83,0,0,0-6.8-6.81,16.24,16.24,0,0,0-16.72,0,16.85,16.85,0,0,0,0,29.11,16.22,16.22,0,0,0,16.71,0,17,17,0,0,0,6.5-6.8,6.37,6.37,0,0,1,9-2.48,6.93,6.93,0,0,1,2.48,9,18.67,18.67,0,0,0-2.48,9,16.81,16.81,0,0,0,8.37,14.54,16.22,16.22,0,0,0,16.71,0,16.82,16.82,0,0,0,0-29.09,18.6,18.6,0,0,0-9.29-2.17,6.5,6.5,0,0,1,0-13,19.53,19.53,0,0,0,9.29-2.17,16.82,16.82,0,0,0,0-29.09A16.05,16.05,0,0,0,57.27,0a16,16,0,0,0-8.35,2.15"/></g></g></svg>